<svg id="Layer_1" data-name="Layer 1" xmlns="http://www.w3.org/2000/svg" viewBox="0 0 1318 858"><defs><style>.cls-1{font-size:30px;font-family:DINAlternate-Bold, DIN Alternate;font-weight:700;}.cls-2{letter-spacing:-0.02em;}.cls-3{letter-spacing:-0.01em;}.cls-4{letter-spacing:-0.09em;}.cls-5{fill:#ff4339;}.cls-6{letter-spacing:-0.08em;}.cls-7{letter-spacing:-0.1em;}.cls-8{fill:#00b3e3;}.cls-9{fill:#ff6b00;}.cls-10{fill:#02ce7c;}.cls-11{letter-spacing:-0.01em;}.cls-12{fill:#ff7bac;}.cls-13{fill:none;stroke:#00b3e3;stroke-miterlimit:10;stroke-width:16px;}.cls-14{fill:#fff;}</style></defs><title>Artboard 2 copy 3em</title><text class="cls-1" transform="translate(260.25 244.95)"><tspan class="cls-2">T</tspan><tspan x="14.46" y="0">he G</tspan><tspan class="cls-3" x="71.06" y="0">a</tspan><tspan class="cls-4" x="85.88" y="0">y</tspan><tspan x="96.45" y="0">, Lesbian, Bisexual and </tspan><tspan class="cls-4" x="394.38" y="0">T</tspan><tspan class="cls-2" x="406.63" y="0">r</tspan><tspan x="417.76" y="0">ansgender National Hotline: </tspan><tspan class="cls-5"><tspan x="293.72" y="36">(888) 843-4564</tspan></tspan><tspan class="cls-2" x="177.74" y="108">T</tspan><tspan x="192.19" y="108">he GLBT National </tspan><tspan class="cls-6" x="418.06" y="108">Y</tspan><tspan x="430.66" y="108">outh </tspan><tspan class="cls-7" x="493.41" y="108">T</tspan><tspan x="505.41" y="108">alkline</tspan><tspan class="cls-8"><tspan x="293.72" y="144">(800) 246-7743</tspan></tspan><tspan x="216.81" y="216">Suicide P</tspan><tspan class="cls-2" x="333.38" y="216">r</tspan><tspan class="cls-3" x="344.52" y="216">ev</tspan><tspan x="372.48" y="216">ention Lifeline</tspan><tspan class="cls-9"><tspan x="293.72" y="252">(800) 273-8255</tspan></tspan><tspan class="cls-2" x="270.52" y="324">T</tspan><tspan x="284.98" y="324">he </tspan><tspan class="cls-4" x="323.28" y="324">T</tspan><tspan class="cls-2" x="335.53" y="324">r</tspan><tspan class="cls-3" x="346.66" y="324">e</tspan><tspan x="361.49" y="324">vor P</tspan><tspan class="cls-2" x="426.45" y="324">r</tspan><tspan x="437.58" y="324">oject</tspan><tspan class="cls-10"><tspan x="293.72" y="360">(866) 488-7386</tspan></tspan><tspan class="cls-2" x="242.04" y="432">T</tspan><tspan x="256.49" y="432">he </tspan><tspan class="cls-4" x="294.8" y="432">T</tspan><tspan class="cls-11" x="307.05" y="432">r</tspan><tspan x="318.35" y="432">ue Colors United</tspan><tspan class="cls-12"><tspan x="293.72" y="468">(212) 461-4401</tspan></tspan></text><rect class="cls-13" x="35" y="83" width="1252" height="687"/><rect class="cls-14" x="1077" y="427" width="223" height="386"/></svg>